<mxfile host="app.diagrams.net" modified="2023-10-03T07:39:06.339Z" agent="Mozilla/5.0 (Macintosh; Intel Mac OS X 10_15_7) AppleWebKit/537.36 (KHTML, like Gecko) Chrome/117.0.0.0 Safari/537.36" version="22.0.1" etag="0CBAHaWj0cM99OsabDeZ" type="github">
  <diagram name="페이지-1" id="30q8d8R8dN1Z8oTTsUYK">
    <mxGraphModel>
      <root>
        <mxCell id="0" />
        <mxCell id="1" parent="0" />
      </root>
    </mxGraphModel>
  </diagram>
</mxfile>
